<?xml version="1.0" standalone="no"?>
<!DOCTYPE svg PUBLIC "-//W3C//DTD SVG 20010904//EN"
 "http://www.w3.org/TR/2001/REC-SVG-20010904/DTD/svg10.dtd">
<svg version="1.0" xmlns="http://www.w3.org/2000/svg"
 width="144.000000pt" height="144.000000pt" viewBox="0 0 144.000000 144.000000"
 preserveAspectRatio="xMidYMid meet">
<metadata>
Created by potrace 1.11, written by Peter Selinger 2001-2013
</metadata>
<g transform="translate(0.000000,144.000000) scale(0.100000,-0.100000)"
fill="#000000" stroke="none">
<path d="M817 1414 c-1 -1 -33 -5 -70 -9 -37 -3 -76 -8 -86 -10 -10 -2 -36 -6
-57 -9 -22 -4 -46 -8 -54 -11 -8 -2 -33 -7 -55 -10 -75 -13 -119 -22 -208 -46
l-38 -10 6 -47 c3 -26 8 -60 11 -77 3 -16 7 -43 9 -60 5 -48 15 -116 25 -170
9 -46 14 -80 25 -160 2 -16 7 -41 10 -55 3 -14 8 -41 11 -60 2 -19 6 -46 9
-60 3 -14 8 -37 10 -52 3 -16 7 -40 10 -55 3 -16 8 -41 10 -58 3 -16 7 -41 10
-55 4 -14 8 -36 11 -50 3 -14 10 -43 15 -65 5 -22 11 -52 14 -67 2 -16 9 -45
15 -65 6 -21 14 -51 16 -68 3 -16 9 -33 12 -36 4 -4 86 -9 182 -13 96 -3 184
-7 195 -8 28 -2 194 81 206 103 5 11 8 19 5 19 -3 0 -1 14 4 30 5 17 12 54 15
83 4 28 9 63 11 77 5 25 7 38 18 135 11 96 16 140 21 190 2 28 6 73 10 100 3
28 7 84 10 125 5 83 15 249 19 322 4 55 0 60 -94 110 -36 20 -87 48 -115 63
-32 18 -67 29 -98 30 -26 1 -48 0 -50 -1z m270 -156 c9 -7 11 -54 8 -176 -7
-266 -21 -551 -30 -622 -2 -19 -7 -64 -10 -98 -4 -35 -8 -82 -10 -105 -3 -23
-6 -51 -9 -62 -2 -11 -5 -31 -5 -44 -1 -18 -5 -22 -18 -16 -10 4 -31 9 -48 11
-60 9 -58 4 -50 132 4 64 9 146 10 182 2 36 6 101 10 145 3 44 8 118 11 165 3
47 7 114 9 150 4 62 16 258 18 310 1 14 6 28 10 31 14 10 90 7 104 -3z m-316
-87 c1 -42 3 -101 4 -131 3 -54 11 -277 21 -560 2 -80 6 -180 8 -223 3 -72 2
-78 -18 -82 -45 -10 -69 3 -72 38 -1 21 -11 108 -19 172 -5 41 -17 143 -20
180 -2 17 -6 50 -9 75 -8 65 -17 140 -21 180 -2 19 -6 54 -9 78 -3 23 -8 68
-12 100 -3 31 -8 71 -10 87 -1 17 -6 56 -9 87 -6 64 -7 63 80 73 27 4 51 8 53
10 2 2 10 1 18 -2 10 -4 14 -26 15 -82z"/>
<path d="M1193 1067 c-4 -73 -20 -267 -28 -337 -7 -61 -17 -158 -20 -185 -1
-16 -4 -30 -5 -30 -1 0 -3 -20 -5 -45 -2 -25 -6 -67 -10 -95 -7 -56 -11 -94
-20 -178 l-6 -58 23 13 c13 7 25 15 28 18 3 3 21 13 41 23 32 17 39 26 55 85
9 37 17 68 16 69 0 2 8 33 19 70 11 38 22 82 25 98 5 28 19 91 31 140 2 11 6
31 8 45 2 14 6 39 10 55 11 60 15 81 21 130 13 98 12 107 -24 126 -18 10 -34
19 -37 19 -3 0 -22 7 -43 16 -73 31 -79 33 -79 21z m131 -142 c-2 -48 -18
-192 -29 -257 -3 -15 -7 -43 -10 -60 -3 -18 -14 -78 -25 -133 -11 -55 -22
-111 -25 -125 -12 -67 -28 -120 -35 -120 -24 0 -69 13 -65 19 2 4 7 30 10 57
6 50 12 89 15 89 1 0 3 18 5 40 2 22 6 51 9 65 4 14 8 41 11 60 2 19 7 53 11
75 4 22 8 51 9 65 2 14 6 41 9 60 3 19 8 53 11 75 17 120 20 127 70 123 26 -3
30 -7 29 -33z"/>
<path d="M170 1029 c-126 -68 -119 -61 -109 -116 26 -134 132 -497 176 -603 3
-8 7 -18 8 -22 2 -5 4 -10 5 -13 1 -3 3 -9 4 -14 0 -5 4 -13 9 -17 4 -4 7 -18
7 -30 0 -13 5 -26 10 -29 6 -3 10 -14 10 -23 0 -11 17 -24 48 -37 26 -11 49
-20 52 -20 3 0 15 -6 28 -13 26 -15 26 -20 6 76 -9 42 -17 83 -17 90 0 6 -4
12 -8 12 -4 0 -6 8 -5 17 2 10 -3 40 -10 68 -7 27 -15 64 -18 80 -2 17 -5 32
-7 35 -1 3 -3 10 -4 15 -10 68 -21 123 -25 128 -1 1 -3 16 -5 32 -2 17 -6 41
-9 55 -8 33 -27 139 -32 170 -2 14 -5 34 -8 45 -4 18 -19 120 -20 137 -2 18
-18 14 -86 -23z m42 -117 c4 -4 9 -19 12 -34 3 -16 8 -40 12 -55 3 -15 7 -30
9 -34 3 -4 7 -24 11 -45 3 -22 10 -47 15 -56 5 -10 8 -18 5 -18 -3 0 0 -15 5
-32 5 -18 12 -44 14 -58 3 -14 12 -52 20 -85 9 -33 17 -69 20 -79 2 -10 14
-54 25 -97 36 -140 36 -144 -4 -156 -32 -10 -35 -9 -45 16 -11 31 -42 127 -45
144 -2 7 -5 19 -8 27 -3 8 -11 33 -17 55 -42 154 -50 183 -55 207 -4 16 -7 30
-7 33 0 2 -5 19 -10 37 -13 45 -33 138 -43 211 l-6 37 42 -5 c23 -3 46 -9 50
-13z"/>
</g>
</svg>
