<?xml version="1.0" encoding="utf-8"?>
<!DOCTYPE svg PUBLIC "-//W3C//DTD SVG 1.1//EN" "http://www.w3.org/Graphics/SVG/1.1/DTD/svg11.dtd">
<svg version="1.1" xmlns="http://www.w3.org/2000/svg" xmlns:xlink="http://www.w3.org/1999/xlink" width="300" height="300" viewBox="0 0 300 300">
    <g transform="translate(0 0)">
        <path fill="#fff" d="M3 5h18q0.414 0 0.707 0.293t0.293 0.707-0.293 0.707-0.707 0.293h-18q-0.414 0-0.707-0.293t-0.293-0.707 0.293-0.707 0.707-0.293zM3 17h18q0.414 0 0.707 0.293t0.293 0.707-0.293 0.707-0.707 0.293h-18q-0.414 0-0.707-0.293t-0.293-0.707 0.293-0.707 0.707-0.293zM3 11h18q0.414 0 0.707 0.293t0.293 0.707-0.293 0.707-0.707 0.293h-18q-0.414 0-0.707-0.293t-0.293-0.707 0.293-0.707 0.707-0.293z"></path>
    </g>
    <g transform="translate(100 0)">
        <path fill="#fff" d="M24 22.32c-3.456 0-6.24-2.784-6.24-6.24s2.784-6.24 6.24-6.24c3.456 0 6.24 2.784 6.24 6.24s-2.784 6.24-6.24 6.24zM24 11.76c-2.4 0-4.32 1.92-4.32 4.32s1.92 4.32 4.32 4.32 4.32-1.92 4.32-4.32-1.92-4.32-4.32-4.32z"></path>
        <path fill="#fff" d="M33.216 32.208h-18.192c-0.96 0-1.392-1.056-1.392-1.776v-3.168c0-3.792 4.656-6.72 10.56-6.72s10.56 2.928 10.56 6.72v3.168c0 0.576-0.528 1.776-1.536 1.776zM15.552 30.288h17.28v-3.024c0-2.592-3.936-4.8-8.64-4.8s-8.64 2.208-8.64 4.8v3.024z"></path>
    </g>
    <g transform="translate(200 0)">
        <path fill="#f00" d="M15.833 5.346l-1.179-1.179-4.654 4.654-4.654-4.654-1.179 1.179 4.654 4.654-4.654 4.654 1.179 1.179 4.654-4.654 4.654 4.654 1.179-1.179-4.654-4.654z"></path>
    </g>
    <g transform="translate(0 50)">
        <path fill="#fff" d="M6 5q0-0.828-0.586-1.414t-1.414-0.586-1.414 0.586-0.586 1.414 0.586 1.414 1.414 0.586 1.414-0.586 0.586-1.414zM8 5q0 0.852-0.258 1.398l-2.844 6.047q-0.125 0.258-0.371 0.406t-0.527 0.148-0.527-0.148-0.363-0.406l-2.852-6.047q-0.258-0.547-0.258-1.398 0-1.656 1.172-2.828t2.828-1.172 2.828 1.172 1.172 2.828z"></path> 
    </g>
    <g transform="translate(50 50)">
        <path fill="#fff" d="M9.625 1h-5.25c-0.619 0-1.125 0.506-1.125 1.125v9.75c0 0.619 0.506 1.125 1.125 1.125h5.25c0.619 0 1.125-0.506 1.125-1.125v-9.75c0-0.619-0.506-1.125-1.125-1.125zM5.5 1.563h3v0.375h-3v-0.375zM7 12.25c-0.414 0-0.75-0.336-0.75-0.75s0.336-0.75 0.75-0.75 0.75 0.336 0.75 0.75-0.336 0.75-0.75 0.75zM10 10h-6v-7.5h6v7.5z"></path>
    </g>
    <g transform="translate(100 50)">
        <path fill="#fff" d="M9.985 8.407c0 0.544 0.155 0.761 0.56 0.761 0.902 0 1.477-1.15 1.477-3.062 0-2.923-2.13-4.322-4.79-4.322-2.736 0-5.224 1.835-5.224 5.302 0 3.312 2.177 5.115 5.52 5.115 1.135 0 1.897-0.124 3.062-0.513l0.25 1.041c-1.151 0.374-2.38 0.482-3.328 0.482-4.385 0-6.733-2.41-6.733-6.126 0-3.747 2.722-6.297 6.469-6.297 3.903 0 5.97 2.332 5.97 5.193 0 2.426-0.761 4.276-3.156 4.276-1.089 0-1.804-0.435-1.897-1.4-0.28 1.073-1.026 1.4-2.037 1.4-1.353 0-2.488-1.042-2.488-3.141 0-2.115 0.996-3.421 2.784-3.421 0.948 0 1.539 0.373 1.802 0.964l0.452-0.824h1.306v4.572h0.001zM8.073 6.355c0-0.855-0.638-1.213-1.167-1.213-0.575 0-1.212 0.466-1.212 1.835 0 1.088 0.482 1.695 1.212 1.695 0.513 0 1.167-0.327 1.167-1.228v-1.088z"></path>
    </g>
    <g transform="translate(150 50)">
        <path fill="#ea3a3c" d="M5.987 15.333l-3.807-6.663 2.315-1.323 1.526 2.669 5.501-9.351 2.298 1.351-7.833 13.315z"></path>
    </g>    
    <g transform="translate(200 50)">
        <path fill="#fff" d="M11 5.75v1.5q0 0.312-0.219 0.531t-0.531 0.219h-3.25v3.25q0 0.312-0.219 0.531t-0.531 0.219h-1.5q-0.312 0-0.531-0.219t-0.219-0.531v-3.25h-3.25q-0.312 0-0.531-0.219t-0.219-0.531v-1.5q0-0.312 0.219-0.531t0.531-0.219h3.25v-3.25q0-0.312 0.219-0.531t0.531-0.219h1.5q0.312 0 0.531 0.219t0.219 0.531v3.25h3.25q0.312 0 0.531 0.219t0.219 0.531z"></path>
    </g>
    <g transform="translate(250 50)">
        <path fill="#fff" d="M11 5.75v1.5q0 0.312-0.219 0.531t-0.531 0.219h-9.5q-0.312 0-0.531-0.219t-0.219-0.531v-1.5q0-0.312 0.219-0.531t0.531-0.219h9.5q0.312 0 0.531 0.219t0.219 0.531z"></path>
    </g>
    <g transform="translate(0 100)">
        <path fill="#999" d="M25.703 26.797l-2.344 2.344-10-10 10-10 2.344 2.344-7.656 7.656z"></path>
    </g>
    <g transform="translate(50 100)">
        <path fill="#999" d="M14.297 27.266l7.656-7.656-7.656-7.656 2.344-2.344 10 10-10 10z"></path>
    </g>
    <g transform="translate(100 100)">
        <path fill="#333" d="M3 6h18v2.016h-18v-2.016zM3 12.984v-1.969h18v1.969h-18zM3 18v-2.016h18v2.016h-18z"></path>
    </g>
    <g transform="translate(150 100)">
        <path fill="#ea3a3c" d="M25.703 26.797l-2.344 2.344-10-10 10-10 2.344 2.344-7.656 7.656z"></path>
    </g>
    <g transform="translate(200 100)">
        <path fill="#ea3a3c" d="M14.297 27.266l7.656-7.656-7.656-7.656 2.344-2.344 10 10-10 10z"></path>
    </g>
    <g transform="translate(0 150)">
        <path fill="#fff" d="M25.703 26.797l-2.344 2.344-10-10 10-10 2.344 2.344-7.656 7.656z"></path>
    </g>
    <g transform="translate(50 150)">
        <path fill="#fff" d="M14.297 27.266l7.656-7.656-7.656-7.656 2.344-2.344 10 10-10 10z"></path>
    </g>
    <g transform="translate(100 150)">
        <path fill="#fff" d="M8.065 3.893c0 0-1.084-2.31-3.523-2.31-2.665 0-4.065 2.258-4.065 4.516 0 3.749 7.587 8.4 7.587 8.4s7.542-4.607 7.542-8.4c0-2.303-1.445-4.516-4.019-4.516s-3.523 2.31-3.523 2.31z"></path>
    </g>
    <g transform="translate(150 150)">
        <rect fill="#fff" class="bar" x="4" y="8" width="3" height="8"></rect>
        <rect fill="#fff" class="bar" x="9" y="3" width="3" height="13"></rect>
        <rect fill="#fff" class="bar" x="14" y="5" width="3" height="11"></rect>
    </g>
    <g transform="translate(0 200)">
        <path fill="#999" d="M1 13h2.25v-2.25h-2.25v2.25zM3.75 13h2.5v-2.25h-2.5v2.25zM1 10.25h2.25v-2.5h-2.25v2.5zM3.75 10.25h2.5v-2.5h-2.5v2.5zM1 7.25h2.25v-2.25h-2.25v2.25zM6.75 13h2.5v-2.25h-2.5v2.25zM3.75 7.25h2.5v-2.25h-2.5v2.25zM9.75 13h2.25v-2.25h-2.25v2.25zM6.75 10.25h2.5v-2.5h-2.5v2.5zM4 3.5v-2.25q0-0.102-0.074-0.176t-0.176-0.074h-0.5q-0.102 0-0.176 0.074t-0.074 0.176v2.25q0 0.102 0.074 0.176t0.176 0.074h0.5q0.102 0 0.176-0.074t0.074-0.176zM9.75 10.25h2.25v-2.5h-2.25v2.5zM6.75 7.25h2.5v-2.25h-2.5v2.25zM9.75 7.25h2.25v-2.25h-2.25v2.25zM10 3.5v-2.25q0-0.102-0.074-0.176t-0.176-0.074h-0.5q-0.102 0-0.176 0.074t-0.074 0.176v2.25q0 0.102 0.074 0.176t0.176 0.074h0.5q0.102 0 0.176-0.074t0.074-0.176zM13 3v10q0 0.406-0.297 0.703t-0.703 0.297h-11q-0.406 0-0.703-0.297t-0.297-0.703v-10q0-0.406 0.297-0.703t0.703-0.297h1v-0.75q0-0.516 0.367-0.883t0.883-0.367h0.5q0.516 0 0.883 0.367t0.367 0.883v0.75h3v-0.75q0-0.516 0.367-0.883t0.883-0.367h0.5q0.516 0 0.883 0.367t0.367 0.883v0.75h1q0.406 0 0.703 0.297t0.297 0.703z"></path>
    </g>
</svg>